{
    "patcher": {
        "fileversion": 1,
        "appversion": {
            "major": 9,
            "minor": 1,
            "revision": 2,
            "architecture": "x64",
            "modernui": 1
        },
        "classnamespace": "box",
        "rect": [ 913.0, 565.0, 280.0, 317.0 ],
        "default_fontname": "Bahnschrift",
        "toolbarvisible": 0,
        "subpatcher_template": "userTemplate_3",
        "boxes": [
            {
                "box": {
                    "comment": "",
                    "id": "obj-12",
                    "index": 2,
                    "maxclass": "outlet",
                    "numinlets": 1,
                    "numoutlets": 0,
                    "patching_rect": [ 57.0, 241.0, 30.0, 30.0 ]
                }
            },
            {
                "box": {
                    "id": "obj-10",
                    "linecount": 2,
                    "maxclass": "comment",
                    "numinlets": 1,
                    "numoutlets": 0,
                    "patching_rect": [ 46.0, 273.0, 51.5, 35.0 ],
                    "text": "plot for number"
                }
            },
            {
                "box": {
                    "id": "obj-4",
                    "maxclass": "message",
                    "numinlets": 2,
                    "numoutlets": 1,
                    "outlettype": [ "" ],
                    "patching_rect": [ 57.0, 205.0, 39.0, 23.0 ],
                    "text": "set $1"
                }
            },
            {
                "box": {
                    "id": "obj-13",
                    "maxclass": "newobj",
                    "numinlets": 6,
                    "numoutlets": 1,
                    "outlettype": [ "" ],
                    "patching_rect": [ 5.0, 105.0, 96.0, 23.0 ],
                    "text": "scale 0. 1. -70. 0."
                }
            },
            {
                "box": {
                    "id": "obj-11",
                    "maxclass": "newobj",
                    "numinlets": 1,
                    "numoutlets": 1,
                    "outlettype": [ "" ],
                    "patching_rect": [ 5.0, 74.0, 105.0, 23.0 ],
                    "text": "expr -($f1*($f1-2))"
                }
            },
            {
                "box": {
                    "id": "obj-9",
                    "maxclass": "newobj",
                    "numinlets": 6,
                    "numoutlets": 1,
                    "outlettype": [ "" ],
                    "patching_rect": [ 5.0, 43.0, 89.0, 23.0 ],
                    "text": "scale 0 127 0. 1."
                }
            },
            {
                "box": {
                    "comment": "",
                    "id": "obj-5",
                    "index": 1,
                    "maxclass": "outlet",
                    "numinlets": 1,
                    "numoutlets": 0,
                    "patching_rect": [ 5.0, 241.0, 30.0, 30.0 ]
                }
            },
            {
                "box": {
                    "comment": "",
                    "id": "obj-1",
                    "index": 1,
                    "maxclass": "inlet",
                    "numinlets": 0,
                    "numoutlets": 1,
                    "outlettype": [ "float" ],
                    "patching_rect": [ 5.0, 4.0, 30.0, 30.0 ]
                }
            }
        ],
        "lines": [
            {
                "patchline": {
                    "destination": [ "obj-9", 0 ],
                    "source": [ "obj-1", 0 ]
                }
            },
            {
                "patchline": {
                    "destination": [ "obj-13", 0 ],
                    "source": [ "obj-11", 0 ]
                }
            },
            {
                "patchline": {
                    "destination": [ "obj-4", 0 ],
                    "midpoints": [ 14.5, 155.0, 66.5, 155.0 ],
                    "order": 0,
                    "source": [ "obj-13", 0 ]
                }
            },
            {
                "patchline": {
                    "destination": [ "obj-5", 0 ],
                    "order": 1,
                    "source": [ "obj-13", 0 ]
                }
            },
            {
                "patchline": {
                    "destination": [ "obj-12", 0 ],
                    "source": [ "obj-4", 0 ]
                }
            },
            {
                "patchline": {
                    "destination": [ "obj-11", 0 ],
                    "source": [ "obj-9", 0 ]
                }
            }
        ],
        "accentcolor": [ 0.329411764705882, 0.329411764705882, 0.329411764705882, 1.0 ],
        "bgcolor": [ 0.411764705882353, 0.411764705882353, 0.411764705882353, 1.0 ],
        "stripecolor": [ 0.243137254901961, 0.243137254901961, 0.243137254901961, 1.0 ],
        "editing_bgcolor": [ 0.490196078431373, 0.490196078431373, 0.490196078431373, 1.0 ]
    }
}